<svg id="Main_Layer" data-name="Main Layer" xmlns="http://www.w3.org/2000/svg" xmlns:xlink="http://www.w3.org/1999/xlink" viewBox="0 0 480 480"><defs><style>.cls-1,.cls-10,.cls-11,.cls-12,.cls-13,.cls-14,.cls-15,.cls-4,.cls-5,.cls-6,.cls-7,.cls-8,.cls-9{stroke:#fff;stroke-miterlimit:10;stroke-width:20px;}.cls-1{fill:url(#linear-gradient);}.cls-2,.cls-3{fill:#fff;}.cls-2{opacity:0.75;}.cls-10,.cls-11,.cls-12,.cls-13,.cls-14,.cls-15,.cls-4,.cls-5,.cls-6,.cls-7,.cls-8,.cls-9{fill:none;stroke-linecap:round;}.cls-5{opacity:0.91;}.cls-6{opacity:0.82;}.cls-7{opacity:0.73;}.cls-8{opacity:0.64;}.cls-9{opacity:0.53;}.cls-10{opacity:0.58;}.cls-11{opacity:0.63;}.cls-12{opacity:0.7;}.cls-13{opacity:0.77;}.cls-14{opacity:0.84;}.cls-15{opacity:0.92;}</style><linearGradient id="linear-gradient" x1="168.81" y1="416.21" x2="311.19" y2="63.79" gradientUnits="userSpaceOnUse"><stop offset="0" stop-color="#0062ff"/><stop offset="1" stop-color="#00baff"/></linearGradient></defs><title>Electron_StarterKit_StartIcon_v1</title><rect class="cls-1" x="50" y="50" width="380" height="380" rx="190"/><g id="Rocket"><path id="Rocket_Boost" data-name="Rocket Boost" class="cls-2" d="M183.26,328.51c-8.09-8.09-11.8-17.88-14.3-24.05a4.92,4.92,0,0,0-8.27-1.47l-21.23,24.36a2.47,2.47,0,0,0,1.56,4.06l11.4,1.57a2.5,2.5,0,0,1,2.1,3l-5.18,23.51a2.48,2.48,0,0,0,2.95,2.95l23.51-5.18a2.49,2.49,0,0,1,3,2.1l1.57,11.4a2.47,2.47,0,0,0,4.07,1.56l24.36-21.23a4.9,4.9,0,0,0-1.48-8.27c-6.21-2.55-16-6.21-24.05-14.3Z" transform="translate(-16 -16)"/><path id="Rocket_Body" data-name="Rocket Body" class="cls-3" d="M304,334.41l.49-43.4c70.62-70.62,60.25-143.57,60.25-143.57s-73.35-10.77-144,59.85l-43.4.49a5.27,5.27,0,0,0-4.16,2.19l-41.75,58.2a4.85,4.85,0,0,0,2.86,7.69l50.29,9.7s.31,18.19,12.11,30,29.55,11.66,29.55,11.66L236,377.5a4.86,4.86,0,0,0,7.69,2.86L302,338.61A5.62,5.62,0,0,0,304,334.41Zm-17.93-108.3c-7.6-7.6-7.33-20.12.58-28s20.48-8.13,28-.58,7.33,20.11-.58,28S293.71,233.71,286.11,226.11Z" transform="translate(-16 -16)"/></g><path class="cls-4" d="M389.23,443.51A229,229,0,0,1,256,486C129,486,26,383,26,256" transform="translate(-16 -16)"/><path class="cls-5" d="M476,323.19a230.05,230.05,0,0,1-59.37,97.4" transform="translate(-16 -16)"/><path class="cls-6" d="M485,234.29Q486,245,486,256a231.55,231.55,0,0,1-2.5,34" transform="translate(-16 -16)"/><path class="cls-7" d="M468.65,168.21a228.47,228.47,0,0,1,10.27,30.94" transform="translate(-16 -16)"/><path class="cls-8" d="M444.26,123.84q3.81,5.41,7.32,11.07" transform="translate(-16 -16)"/><line class="cls-9" x1="402.03" y1="76.76" x2="402.03" y2="76.76"/><line class="cls-10" x1="350" y1="37.98" x2="350" y2="37.98"/><line class="cls-11" x1="299.42" y1="17.77" x2="299.42" y2="17.77"/><path class="cls-12" d="M246.31,26.2Q251.13,26,256,26q6.9,0,13.69.4" transform="translate(-16 -16)"/><path class="cls-13" d="M176,40.29a228.42,228.42,0,0,1,30-8.84" transform="translate(-16 -16)"/><path class="cls-14" d="M100.58,86.46a231,231,0,0,1,41.56-30.35" transform="translate(-16 -16)"/><path class="cls-15" d="M28.33,223.17A229,229,0,0,1,75.86,113" transform="translate(-16 -16)"/><path class="cls-4" d="M26,256" transform="translate(-16 -16)"/></svg>